<?xml version="1.0" encoding="UTF-8"?>
<svg version="1.1" xmlns="http://www.w3.org/2000/svg" width="128" height="128">
<path d="M0 0 C4.76920013 2.79367372 8.48428149 6.20620098 12.3125 10.125 C12.84939453 10.66253906 13.38628906 11.20007813 13.93945312 11.75390625 C17.49276546 15.34754622 19.1549432 17.27658472 19.375 22.3125 C19.31189983 25.86905532 19.04355638 26.93115282 17.0625 30.0625 C13.54509966 32.28779409 11.43989884 32.85444761 7.328125 32.609375 C2.84402455 31.43568428 0.12700236 28.26215766 -3 25 C-4.09248047 23.95779297 -4.09248047 23.95779297 -5.20703125 22.89453125 C-12.71438674 15.68476462 -12.71438674 15.68476462 -13.3125 10.0625 C-12.95328773 6.54221975 -12.16379476 4.78202183 -10 2 C-6.78144775 -0.33067577 -3.89509474 -0.46741137 0 0 Z " fill="#D25EEE" transform="translate(93,80)"/>
<path d="M0 0 C2.80915461 1.27688846 4.50106764 2.31099817 6.3125 4.8125 C7.24508259 7.77980823 7.37237901 9.89684156 7 13 C4.20632628 17.76920013 0.79379902 21.48428149 -3.125 25.3125 C-3.66253906 25.84939453 -4.20007813 26.38628906 -4.75390625 26.93945312 C-8.34754622 30.49276546 -10.27658472 32.1549432 -15.3125 32.375 C-18.86905532 32.31189983 -19.93115282 32.04355638 -23.0625 30.0625 C-25.28779409 26.54509966 -25.85444761 24.43989884 -25.609375 20.328125 C-24.43568428 15.84402455 -21.26215766 13.12700236 -18 10 C-16.95779297 8.90751953 -16.95779297 8.90751953 -15.89453125 7.79296875 C-10.91631236 2.6092699 -7.56913468 -0.77236068 0 0 Z " fill="#E064E7" transform="translate(41,80)"/>
<path d="M0 0 C3.16622706 2.00312324 4.57626493 3.39651333 5.54296875 7.0546875 C5.86701989 10.58867917 5.60139814 13.03631382 3.703125 16.078125 C1.9006646 18.17823941 -0.00229791 20.08506522 -2 22 C-2.69480469 22.72832031 -3.38960937 23.45664062 -4.10546875 24.20703125 C-11.31523538 31.71438674 -11.31523538 31.71438674 -16.9375 32.3125 C-20.45778025 31.95328773 -22.21797817 31.16379476 -25 29 C-27.33067577 25.78144775 -27.46741137 22.89509474 -27 19 C-24.20632628 14.23079987 -20.79379902 10.51571851 -16.875 6.6875 C-16.33746094 6.15060547 -15.79992187 5.61371094 -15.24609375 5.06054688 C-10.26707482 0.13740222 -6.94441879 -1.01771655 0 0 Z " fill="#E064E7" transform="translate(107,16)"/>
<path d="M0 0 C4.48410045 1.17369072 7.20112264 4.34721734 10.328125 7.609375 C11.05644531 8.30417969 11.78476562 8.99898437 12.53515625 9.71484375 C20.04251174 16.92461038 20.04251174 16.92461038 20.640625 22.546875 C20.28141273 26.06715525 19.49191976 27.82735317 17.328125 30.609375 C14.10957275 32.94005077 11.22321974 33.07678637 7.328125 32.609375 C2.55892487 29.81570128 -1.15615649 26.40317402 -4.984375 22.484375 C-5.52126953 21.94683594 -6.05816406 21.40929687 -6.61132812 20.85546875 C-10.16464046 17.26182878 -11.8268182 15.33279028 -12.046875 10.296875 C-11.98377483 6.74031968 -11.71543138 5.67822218 -9.734375 2.546875 C-6.21697466 0.32158091 -4.11177384 -0.24507261 0 0 Z " fill="#F06ADE" transform="translate(27.671875,15.390625)"/>
<path d="M0 0 C1.08087891 -0.03738281 2.16175781 -0.07476562 3.27539062 -0.11328125 C12.21801233 -0.21209475 12.21801233 -0.21209475 15.90234375 2.5859375 C18.29589552 5.50729812 19.00716624 6.65946717 18.9375 10.375 C18.95296875 11.2 18.9684375 12.025 18.984375 12.875 C18.04660008 15.81703896 16.71467322 17.53425823 14.25146484 19.40234375 C9.819171 21.49108975 4.92161789 21.00190991 0.125 20.875 C-1.48858398 20.87886719 -1.48858398 20.87886719 -3.13476562 20.8828125 C-8.65200963 20.81440278 -12.2260382 20.71132308 -16.8125 17.375 C-19.27178744 13.68606884 -19.50555579 10.65858579 -18.8125 6.375 C-14.23780101 -1.03916732 -7.893646 0.1024544 0 0 Z " fill="#D660ED" transform="translate(109.8125,53.625)"/>
<path d="M0 0 C1.61358398 -0.00386719 1.61358398 -0.00386719 3.25976562 -0.0078125 C8.77700963 0.06059722 12.3510382 0.16367692 16.9375 3.5 C19.39678744 7.18893116 19.63055579 10.21641421 18.9375 14.5 C16.8130173 17.94312714 15.78897359 19.21617547 11.9375 20.5 C8.00521661 20.80975211 4.0680318 20.82382201 0.125 20.875 C-0.95587891 20.91238281 -2.03675781 20.94976562 -3.15039062 20.98828125 C-12.09301233 21.08709475 -12.09301233 21.08709475 -15.77734375 18.2890625 C-18.17089552 15.36770188 -18.88216624 14.21553283 -18.8125 10.5 C-18.82796875 9.675 -18.8434375 8.85 -18.859375 8 C-17.92160008 5.05796104 -16.58967322 3.34074177 -14.12646484 1.47265625 C-9.694171 -0.61608975 -4.79661789 -0.12690991 0 0 Z " fill="#EC68E1" transform="translate(18.0625,53.5)"/>
<path d="M0 0 C1.2375 -0.02320312 1.2375 -0.02320312 2.5 -0.046875 C5.44203896 0.89089992 7.15925823 2.22282678 9.02734375 4.68603516 C11.11608975 9.118329 10.62690991 14.01588211 10.5 18.8125 C10.50386719 20.42608398 10.50386719 20.42608398 10.5078125 22.07226562 C10.43940278 27.58950963 10.33632308 31.1635382 7 35.75 C3.31106884 38.20928744 0.28358579 38.44305579 -4 37.75 C-7.44312714 35.6255173 -8.71617547 34.60147359 -10 30.75 C-10.30975211 26.81771661 -10.32382201 22.8805318 -10.375 18.9375 C-10.41238281 17.85662109 -10.44976562 16.77574219 -10.48828125 15.66210938 C-10.58709475 6.71948767 -10.58709475 6.71948767 -7.7890625 3.03515625 C-4.86770188 0.64160448 -3.71553283 -0.06966624 0 0 Z " fill="#EC68E1" transform="translate(64,-0.75)"/>
<path d="M0 0 C3.44312714 2.1244827 4.71617547 3.14852641 6 7 C6.28396542 10.95358196 6.2775766 14.91235775 6.3125 18.875 C6.34150391 19.96425781 6.37050781 21.05351563 6.40039062 22.17578125 C6.46436449 30.21680381 6.46436449 30.21680381 4.10546875 34.1953125 C1.22890821 36.66093582 -0.58765148 37.23091176 -4.3125 37.4375 C-5.07175781 37.49808594 -5.83101562 37.55867188 -6.61328125 37.62109375 C-9.57156283 36.8512627 -11.17489134 35.49906443 -13.01635742 33.07495117 C-15.1186668 28.6402211 -14.62710202 23.74137848 -14.5 18.9375 C-14.50386719 17.32391602 -14.50386719 17.32391602 -14.5078125 15.67773438 C-14.43940278 10.16049037 -14.33632308 6.5864618 -11 2 C-7.31106884 -0.45928744 -4.28358579 -0.69305579 0 0 Z " fill="#D65FED" transform="translate(68,91)"/>
</svg>
